<mxfile host="app.diagrams.net" modified="2023-06-23T21:19:15.949Z" agent="Mozilla/5.0 (Windows NT 10.0; Win64; x64) AppleWebKit/537.36 (KHTML, like Gecko) Chrome/114.0.0.0 Safari/537.36" etag="au5g6fpR5EC86eD7NWqs" version="21.3.2" type="device">
  <diagram name="Page-1" id="AU_je7DwuY3p0GlC9h6e">
    <mxGraphModel dx="1195" dy="640" grid="1" gridSize="10" guides="1" tooltips="1" connect="1" arrows="1" fold="1" page="1" pageScale="1" pageWidth="850" pageHeight="1100" math="0" shadow="0">
      <root>
        <mxCell id="0" />
        <mxCell id="1" parent="0" />
        <mxCell id="v0uSgduVXIGpmhYUE5KM-31" value="" style="rounded=0;whiteSpace=wrap;html=1;" vertex="1" parent="1">
          <mxGeometry x="25" y="63" width="765" height="317" as="geometry" />
        </mxCell>
        <mxCell id="v0uSgduVXIGpmhYUE5KM-1" value="{T1, T2, T3, T4, ... Tn}&lt;br&gt;( )" style="text;html=1;align=center;verticalAlign=middle;resizable=0;points=[];autosize=1;strokeColor=default;fillColor=none;" vertex="1" parent="1">
          <mxGeometry x="330" y="83" width="140" height="40" as="geometry" />
        </mxCell>
        <mxCell id="v0uSgduVXIGpmhYUE5KM-2" value="{T2, T3, T4, ... Tn}&lt;br&gt;(T1)" style="text;html=1;align=center;verticalAlign=middle;resizable=0;points=[];autosize=1;strokeColor=default;fillColor=none;" vertex="1" parent="1">
          <mxGeometry x="510" y="160" width="120" height="40" as="geometry" />
        </mxCell>
        <mxCell id="v0uSgduVXIGpmhYUE5KM-4" value="{T3, T4, ... Tn}&lt;br&gt;(T1,T2)" style="text;html=1;align=center;verticalAlign=middle;resizable=0;points=[];autosize=1;strokeColor=default;fillColor=none;" vertex="1" parent="1">
          <mxGeometry x="600" y="230" width="100" height="40" as="geometry" />
        </mxCell>
        <mxCell id="v0uSgduVXIGpmhYUE5KM-5" value="{T2, T3, T4, ... Tn}&lt;br&gt;( )" style="text;html=1;align=center;verticalAlign=middle;resizable=0;points=[];autosize=1;strokeColor=default;fillColor=none;" vertex="1" parent="1">
          <mxGeometry x="180" y="160" width="120" height="40" as="geometry" />
        </mxCell>
        <mxCell id="v0uSgduVXIGpmhYUE5KM-6" value="{T3, T4, ... Tn}&lt;br&gt;(T1)" style="text;html=1;align=center;verticalAlign=middle;resizable=0;points=[];autosize=1;strokeColor=default;fillColor=none;" vertex="1" parent="1">
          <mxGeometry x="420" y="230" width="100" height="40" as="geometry" />
        </mxCell>
        <mxCell id="v0uSgduVXIGpmhYUE5KM-7" value="{T3, T4, ... Tn}&lt;br&gt;(T2)" style="text;html=1;align=center;verticalAlign=middle;resizable=0;points=[];autosize=1;strokeColor=default;fillColor=none;" vertex="1" parent="1">
          <mxGeometry x="290" y="230" width="100" height="40" as="geometry" />
        </mxCell>
        <mxCell id="v0uSgduVXIGpmhYUE5KM-8" value="{T3, T4, ... Tn}&lt;br&gt;( )" style="text;html=1;align=center;verticalAlign=middle;resizable=0;points=[];autosize=1;strokeColor=default;fillColor=none;" vertex="1" parent="1">
          <mxGeometry x="90" y="230" width="100" height="40" as="geometry" />
        </mxCell>
        <mxCell id="v0uSgduVXIGpmhYUE5KM-9" value="" style="endArrow=none;dashed=1;html=1;dashPattern=1 3;strokeWidth=2;rounded=0;exitX=0.5;exitY=0.063;exitDx=0;exitDy=0;exitPerimeter=0;" edge="1" parent="1" source="v0uSgduVXIGpmhYUE5KM-11">
          <mxGeometry width="50" height="50" relative="1" as="geometry">
            <mxPoint x="550" y="340" as="sourcePoint" />
            <mxPoint x="650" y="270" as="targetPoint" />
          </mxGeometry>
        </mxCell>
        <mxCell id="v0uSgduVXIGpmhYUE5KM-11" value="{ }&lt;br&gt;(T1, T2, T3, T4, ... Tn)" style="text;html=1;align=center;verticalAlign=middle;resizable=0;points=[];autosize=1;strokeColor=default;fillColor=none;" vertex="1" parent="1">
          <mxGeometry x="630" y="310" width="140" height="40" as="geometry" />
        </mxCell>
        <mxCell id="v0uSgduVXIGpmhYUE5KM-13" value="" style="endArrow=none;dashed=1;html=1;dashPattern=1 3;strokeWidth=2;rounded=0;entryX=0.508;entryY=1.063;entryDx=0;entryDy=0;entryPerimeter=0;exitX=0.611;exitY=-0.062;exitDx=0;exitDy=0;exitPerimeter=0;" edge="1" parent="1" source="v0uSgduVXIGpmhYUE5KM-14" target="v0uSgduVXIGpmhYUE5KM-8">
          <mxGeometry width="50" height="50" relative="1" as="geometry">
            <mxPoint x="290" y="390" as="sourcePoint" />
            <mxPoint x="231" y="320" as="targetPoint" />
          </mxGeometry>
        </mxCell>
        <mxCell id="v0uSgduVXIGpmhYUE5KM-14" value="{ }&lt;br&gt;( )" style="text;html=1;align=center;verticalAlign=middle;resizable=0;points=[];autosize=1;strokeColor=default;fillColor=none;" vertex="1" parent="1">
          <mxGeometry x="70" y="310" width="30" height="40" as="geometry" />
        </mxCell>
        <mxCell id="v0uSgduVXIGpmhYUE5KM-16" value="" style="endArrow=classic;html=1;rounded=0;entryX=0.993;entryY=0.021;entryDx=0;entryDy=0;entryPerimeter=0;" edge="1" parent="1" target="v0uSgduVXIGpmhYUE5KM-5">
          <mxGeometry width="50" height="50" relative="1" as="geometry">
            <mxPoint x="400" y="120" as="sourcePoint" />
            <mxPoint x="340" y="158" as="targetPoint" />
          </mxGeometry>
        </mxCell>
        <mxCell id="v0uSgduVXIGpmhYUE5KM-17" value="" style="endArrow=classic;html=1;rounded=0;entryX=0;entryY=0.042;entryDx=0;entryDy=0;entryPerimeter=0;" edge="1" parent="1" target="v0uSgduVXIGpmhYUE5KM-2">
          <mxGeometry width="50" height="50" relative="1" as="geometry">
            <mxPoint x="400" y="120" as="sourcePoint" />
            <mxPoint x="318" y="178" as="targetPoint" />
          </mxGeometry>
        </mxCell>
        <mxCell id="v0uSgduVXIGpmhYUE5KM-19" value="" style="endArrow=classic;html=1;rounded=0;entryX=1.008;entryY=0;entryDx=0;entryDy=0;entryPerimeter=0;exitX=0.479;exitY=1.063;exitDx=0;exitDy=0;exitPerimeter=0;" edge="1" parent="1" source="v0uSgduVXIGpmhYUE5KM-2" target="v0uSgduVXIGpmhYUE5KM-6">
          <mxGeometry width="50" height="50" relative="1" as="geometry">
            <mxPoint x="375" y="170" as="sourcePoint" />
            <mxPoint x="425" y="212" as="targetPoint" />
          </mxGeometry>
        </mxCell>
        <mxCell id="v0uSgduVXIGpmhYUE5KM-20" value="" style="endArrow=classic;html=1;rounded=0;entryX=0.083;entryY=0;entryDx=0;entryDy=0;entryPerimeter=0;exitX=0.472;exitY=1.083;exitDx=0;exitDy=0;exitPerimeter=0;" edge="1" parent="1" source="v0uSgduVXIGpmhYUE5KM-2" target="v0uSgduVXIGpmhYUE5KM-4">
          <mxGeometry width="50" height="50" relative="1" as="geometry">
            <mxPoint x="577" y="213" as="sourcePoint" />
            <mxPoint x="531" y="240" as="targetPoint" />
          </mxGeometry>
        </mxCell>
        <mxCell id="v0uSgduVXIGpmhYUE5KM-21" value="" style="endArrow=classic;html=1;rounded=0;entryX=-0.025;entryY=-0.042;entryDx=0;entryDy=0;entryPerimeter=0;exitX=0.5;exitY=1.083;exitDx=0;exitDy=0;exitPerimeter=0;" edge="1" parent="1" source="v0uSgduVXIGpmhYUE5KM-5" target="v0uSgduVXIGpmhYUE5KM-7">
          <mxGeometry width="50" height="50" relative="1" as="geometry">
            <mxPoint x="410" y="130" as="sourcePoint" />
            <mxPoint x="350" y="168" as="targetPoint" />
          </mxGeometry>
        </mxCell>
        <mxCell id="v0uSgduVXIGpmhYUE5KM-22" value="" style="endArrow=classic;html=1;rounded=0;exitX=0.472;exitY=1.083;exitDx=0;exitDy=0;exitPerimeter=0;" edge="1" parent="1" source="v0uSgduVXIGpmhYUE5KM-5" target="v0uSgduVXIGpmhYUE5KM-8">
          <mxGeometry width="50" height="50" relative="1" as="geometry">
            <mxPoint x="280" y="213" as="sourcePoint" />
            <mxPoint x="308" y="238" as="targetPoint" />
          </mxGeometry>
        </mxCell>
        <mxCell id="v0uSgduVXIGpmhYUE5KM-24" value="" style="endArrow=none;dashed=1;html=1;dashPattern=1 3;strokeWidth=2;rounded=0;" edge="1" parent="1">
          <mxGeometry width="50" height="50" relative="1" as="geometry">
            <mxPoint x="160" y="300" as="sourcePoint" />
            <mxPoint x="140" y="280" as="targetPoint" />
          </mxGeometry>
        </mxCell>
        <mxCell id="v0uSgduVXIGpmhYUE5KM-25" value="" style="endArrow=none;dashed=1;html=1;dashPattern=1 3;strokeWidth=2;rounded=0;" edge="1" parent="1">
          <mxGeometry width="50" height="50" relative="1" as="geometry">
            <mxPoint x="360" y="290" as="sourcePoint" />
            <mxPoint x="340" y="270" as="targetPoint" />
          </mxGeometry>
        </mxCell>
        <mxCell id="v0uSgduVXIGpmhYUE5KM-26" value="" style="endArrow=none;dashed=1;html=1;dashPattern=1 3;strokeWidth=2;rounded=0;" edge="1" parent="1">
          <mxGeometry width="50" height="50" relative="1" as="geometry">
            <mxPoint x="320" y="290" as="sourcePoint" />
            <mxPoint x="340" y="270" as="targetPoint" />
          </mxGeometry>
        </mxCell>
        <mxCell id="v0uSgduVXIGpmhYUE5KM-27" value="" style="endArrow=none;dashed=1;html=1;dashPattern=1 3;strokeWidth=2;rounded=0;" edge="1" parent="1">
          <mxGeometry width="50" height="50" relative="1" as="geometry">
            <mxPoint x="490" y="290" as="sourcePoint" />
            <mxPoint x="470" y="270" as="targetPoint" />
          </mxGeometry>
        </mxCell>
        <mxCell id="v0uSgduVXIGpmhYUE5KM-28" value="" style="endArrow=none;dashed=1;html=1;dashPattern=1 3;strokeWidth=2;rounded=0;" edge="1" parent="1">
          <mxGeometry width="50" height="50" relative="1" as="geometry">
            <mxPoint x="450" y="290" as="sourcePoint" />
            <mxPoint x="470" y="270" as="targetPoint" />
          </mxGeometry>
        </mxCell>
        <mxCell id="v0uSgduVXIGpmhYUE5KM-29" value="" style="endArrow=none;dashed=1;html=1;dashPattern=1 3;strokeWidth=2;rounded=0;" edge="1" parent="1">
          <mxGeometry width="50" height="50" relative="1" as="geometry">
            <mxPoint x="630" y="290" as="sourcePoint" />
            <mxPoint x="650" y="270" as="targetPoint" />
          </mxGeometry>
        </mxCell>
      </root>
    </mxGraphModel>
  </diagram>
</mxfile>
